<?xml version="1.0" encoding="UTF-8"?>
<svg version="1.1" xmlns="http://www.w3.org/2000/svg" width="1280" height="1280">
<path d="M0 0 C422.4 0 844.8 0 1280 0 C1280 422.4 1280 844.8 1280 1280 C857.6 1280 435.2 1280 0 1280 C0 857.6 0 435.2 0 0 Z " fill="#222222" transform="translate(0,0)"/>
<path d="M0 0 C14.77124023 -0.28963216 30.17989851 1.37419533 44.69921875 4.12109375 C45.02921875 4.45109375 45.35921875 4.78109375 45.69921875 5.12109375 C47.80045326 5.49226072 49.90547768 5.84198 52.01171875 6.18359375 C65.92070319 8.72879451 79.68915559 14.74483448 91.69921875 22.12109375 C93.06626953 22.90613281 93.06626953 22.90613281 94.4609375 23.70703125 C108.87955363 32.52375513 120.63328757 45.34470945 128.69921875 60.12109375 C129.32054687 61.20777344 129.941875 62.29445313 130.58203125 63.4140625 C141.36129346 84.06264919 142.84891927 107.61952778 142.84106445 130.44970703 C142.84410147 132.28579288 142.84762441 134.12187797 142.85159302 135.95796204 C142.85944146 139.89415697 142.86461156 143.83034301 142.86788368 147.76654434 C142.87383317 154.00583872 142.89041076 160.24507723 142.90922546 166.48434448 C142.91556178 168.62755772 142.92188742 170.770771 142.92820263 172.9139843 C142.93136844 173.98687761 142.93453425 175.05977092 142.937796 176.16517615 C142.97973398 190.67456078 143.01283301 205.18391813 143.02514648 219.69335938 C143.03355646 229.50288778 143.05615176 239.31227616 143.09450215 249.1217345 C143.11415705 254.30050313 143.12670258 259.47906297 143.12166786 264.65787125 C143.11698327 269.5352782 143.1310324 274.41229011 143.15867996 279.28961754 C143.16552702 281.06596136 143.16578945 282.84234661 143.15847969 284.61868858 C143.06873642 308.90489638 149.45987375 334.95368318 166.52734375 353.0234375 C170.50050279 356.86082312 174.47710532 359.25605324 179.69921875 361.12109375 C180.31925781 361.36859375 180.93929688 361.61609375 181.578125 361.87109375 C193.71899437 366.66293593 207.49787802 366.4100509 219.57421875 361.24609375 C229.05185543 356.58384519 237.20712127 349.86026308 241.69921875 340.12109375 C242.31410156 338.84492187 242.31410156 338.84492187 242.94140625 337.54296875 C249.67726307 322.63639803 250.13769333 308.06555673 250.0715332 292.01171875 C250.07396633 289.92549458 250.07769067 287.83927158 250.08259583 285.75305176 C250.09193714 280.12908199 250.08263657 274.50528832 250.0692637 268.8813324 C250.05787479 262.97069299 250.06206243 257.06006131 250.06401062 251.14941406 C250.06489125 241.22718459 250.05386154 231.30502374 250.03540039 221.3828125 C250.01423639 209.94306789 250.01072434 198.50342371 250.01696235 187.06366348 C250.02267498 176.01813696 250.01698801 164.97264549 250.0057888 153.92712402 C250.00116793 149.24490708 250.00025802 144.56271175 250.00237465 139.88049316 C250.00427094 134.35802653 249.99605148 128.83566079 249.98031425 123.31321716 C249.97610481 121.29736244 249.97519807 119.28149742 249.97800446 117.26564026 C249.99127414 106.02055426 249.52802908 95.22727281 247.69921875 84.12109375 C247.41200691 82.18988678 247.41200691 82.18988678 247.11899281 80.21966553 C245.5618951 70.11270613 241.71758439 61.89764109 236.69921875 53.12109375 C236.17972656 52.20972656 235.66023437 51.29835938 235.125 50.359375 C226.15173287 35.87922612 210.62348652 29.16426642 194.69921875 25.12109375 C178.56000544 22.09166952 159.55566763 25.91351568 145.57421875 34.62109375 C141.76113676 37.24941723 138.15474414 40.03913867 134.69921875 43.12109375 C130.99865139 42.19595191 129.24671574 40.90989441 127.26171875 37.74609375 C125.69921875 34.12109375 125.69921875 34.12109375 126.28515625 32.16015625 C137.57325504 15.88284253 166.35135933 8.38727124 184.47335815 4.97544861 C197.48595433 2.62949677 210.48745363 0.83382265 223.69921875 0.12109375 C224.82360352 0.06042725 224.82360352 0.06042725 225.97070312 -0.00146484 C239.6561605 -0.5816551 253.16610489 1.302222 266.69921875 3.12109375 C267.51455078 3.22260742 268.32988281 3.32412109 269.16992188 3.42871094 C285.76276419 5.52674113 301.7730464 11.69371612 316.69921875 19.12109375 C316.69921875 19.78109375 316.69921875 20.44109375 316.69921875 21.12109375 C319.00921875 21.78109375 321.31921875 22.44109375 323.69921875 23.12109375 C323.69921875 23.78109375 323.69921875 24.44109375 323.69921875 25.12109375 C324.42367187 25.36472656 325.148125 25.60835937 325.89453125 25.859375 C330.99062736 28.15190849 334.67580802 32.31944582 338.69921875 36.12109375 C339.32183594 36.66765625 339.94445312 37.21421875 340.5859375 37.77734375 C360.77913305 56.22893502 368.4116767 88.08342228 369.81553531 114.29265714 C369.99437411 119.69354952 369.97943114 125.09508172 369.97045898 130.49829102 C369.97485886 132.2792484 369.98016554 134.06020374 369.98629761 135.84115601 C369.99769839 139.64249994 370.00324962 143.44378888 370.004179 147.24514961 C370.00613893 153.27008638 370.02429482 159.29491112 370.04493713 165.31980896 C370.09385711 180.2771394 370.12498267 195.23449981 370.14624023 210.19189453 C370.16281072 221.83713768 370.18573519 233.48228307 370.22926098 245.1274609 C370.25089399 251.10281509 370.25910886 257.07798285 370.25686824 263.05337346 C370.25854759 266.78420613 370.2726718 270.51491919 370.29008102 274.24570847 C370.29562857 275.96001113 370.29621443 277.67433913 370.29114342 279.38864326 C370.25282587 293.87295928 372.25892029 307.02053717 376.94921875 320.80859375 C377.2536792 321.70433105 377.55813965 322.60006836 377.87182617 323.52294922 C384.32317449 341.85905941 396.38074238 356.13436733 413.94140625 364.703125 C418.52824688 366.57693598 423.32755093 367.66256456 428.13671875 368.80859375 C429.05904297 369.03353516 429.98136719 369.25847656 430.93164062 369.49023438 C433.18624514 370.03928314 435.44203716 370.58275674 437.69921875 371.12109375 C436.82421875 375.99609375 436.82421875 375.99609375 435.69921875 377.12109375 C433.8944702 377.22407569 432.08566139 377.25630961 430.27798462 377.26153564 C429.10084396 377.26724579 427.92370331 377.27295593 426.71089172 377.27883911 C425.40718124 377.27995697 424.10347076 377.28107483 422.76025391 377.28222656 C421.38208381 377.28685315 420.00391499 377.29187759 418.62574768 377.29727173 C414.86638709 377.31043272 411.10704441 377.31685048 407.34766436 377.32128239 C404.99248928 377.32421351 402.63731908 377.3283189 400.28214645 377.33278656 C392.89617454 377.34648513 385.51021377 377.35613429 378.12423003 377.35998845 C369.63400332 377.36444376 361.14393966 377.38186278 352.65376246 377.41098905 C346.07515254 377.43276148 339.49658789 377.44270131 332.9179424 377.44402957 C328.99874508 377.44506864 325.07970048 377.45077888 321.16054153 377.46884918 C271.36961678 377.68492327 271.36961678 377.68492327 254.34375 361.85546875 C252.69921875 360.12109375 252.69921875 360.12109375 251.69921875 358.12109375 C247.47939632 359.68399095 245.48398001 362.7097612 242.69921875 366.12109375 C239.19921875 369.12109375 239.19921875 369.12109375 236.69921875 369.12109375 C236.69921875 369.78109375 236.69921875 370.44109375 236.69921875 371.12109375 C220.55001462 384.15294189 198.97153044 389.67459092 178.69921875 391.12109375 C177.24322266 391.28351563 177.24322266 391.28351563 175.7578125 391.44921875 C151.98698496 394.01903794 127.49624743 392.34486435 104.69921875 385.12109375 C104.01021484 384.90469238 103.32121094 384.68829102 102.61132812 384.46533203 C82.96603441 378.12094611 66.16528752 367.71081418 52.56640625 352.20703125 C50.77153188 350.14393406 50.77153188 350.14393406 48.95703125 348.47265625 C47.69921875 347.12109375 47.69921875 347.12109375 47.69921875 345.12109375 C47.03921875 345.12109375 46.37921875 345.12109375 45.69921875 345.12109375 C43.71921875 341.65609375 43.71921875 341.65609375 41.69921875 338.12109375 C38.73659688 340.92744546 36.4326219 343.81659971 34.13671875 347.18359375 C20.27126954 366.48697936 0.69292085 378.24203124 -21.30078125 386.12109375 C-22.30882812 386.50007813 -23.316875 386.8790625 -24.35546875 387.26953125 C-50.16930963 396.18703992 -80.51771317 395.67804099 -107.30078125 392.12109375 C-108.35749023 391.99226807 -108.35749023 391.99226807 -109.43554688 391.86083984 C-126.10009896 389.77186979 -143.07965456 384.14603953 -157.30078125 375.12109375 C-158.29078125 374.50234375 -159.28078125 373.88359375 -160.30078125 373.24609375 C-161.29078125 372.54484375 -162.28078125 371.84359375 -163.30078125 371.12109375 C-164.1103125 370.55777344 -164.91984375 369.99445313 -165.75390625 369.4140625 C-172.36483847 364.7328577 -178.4052927 359.67038781 -184.30078125 354.12109375 C-185.18830078 353.33025391 -185.18830078 353.33025391 -186.09375 352.5234375 C-199.61801398 339.9628978 -208.18119391 323.46281052 -213.67578125 306.12109375 C-214.02213623 305.04110107 -214.36849121 303.9611084 -214.7253418 302.84838867 C-215.20741089 301.25087769 -215.20741089 301.25087769 -215.69921875 299.62109375 C-215.98458496 298.68265625 -216.26995117 297.74421875 -216.56396484 296.77734375 C-218.78440196 285.75903154 -218.45134117 274.35379313 -218.45849609 263.15771484 C-218.46317667 261.4920641 -218.46832223 259.82641461 -218.47389221 258.1607666 C-218.48508754 254.59839374 -218.49356248 251.03602881 -218.50001144 247.47364426 C-218.51079541 241.82172384 -218.53106683 236.16986109 -218.5531311 230.51797485 C-218.61470857 214.45423027 -218.66897267 198.3904905 -218.70214844 182.32666016 C-218.7205898 173.43562618 -218.74963929 164.54469058 -218.79015315 155.65372908 C-218.81105606 150.96456644 -218.82665646 146.27552681 -218.82896042 141.58631516 C-218.831134 137.16855645 -218.84727371 132.75105422 -218.87335014 128.33337402 C-218.88044145 126.72880093 -218.88269481 125.12419642 -218.87924767 123.51961136 C-218.82785221 95.00395231 -224.95145132 66.61382076 -243.30078125 44.12109375 C-244.01105469 43.24710938 -244.72132813 42.373125 -245.453125 41.47265625 C-250.47802575 35.59113798 -255.80809931 31.27896888 -262.30078125 27.12109375 C-262.91050781 26.65960937 -263.52023437 26.198125 -264.1484375 25.72265625 C-270.65561456 21.0031652 -278.58462562 19.79729746 -286.30078125 18.12109375 C-285.97078125 16.47109375 -285.64078125 14.82109375 -285.30078125 13.12109375 C-267.92349604 13.07424102 -250.54623073 13.03904015 -233.16889668 13.01746941 C-225.09914849 13.0071847 -217.02943969 12.99317842 -208.9597168 12.97021484 C-201.92093779 12.95019463 -194.88218733 12.93735696 -187.84338063 12.93291676 C-184.12112496 12.9303239 -180.39895092 12.92428901 -176.67672157 12.90963364 C-172.50750836 12.89335361 -168.33843441 12.89311955 -164.16918945 12.89404297 C-162.95357834 12.88685242 -161.73796722 12.87966187 -160.48551941 12.87225342 C-149.68022888 12.89800118 -139.08081466 13.878558 -128.98828125 17.93359375 C-128.31023437 18.19857666 -127.6321875 18.46355957 -126.93359375 18.73657227 C-119.08564745 21.88841486 -108.27772242 27.16721141 -104.30078125 35.12109375 C-103.64078125 35.12109375 -102.98078125 35.12109375 -102.30078125 35.12109375 C-101.66140625 34.29609375 -101.02203125 33.47109375 -100.36328125 32.62109375 C-94.75471432 25.61868179 -86.43677398 20.67134512 -78.30078125 17.12109375 C-77.64078125 17.12109375 -76.98078125 17.12109375 -76.30078125 17.12109375 C-76.30078125 16.46109375 -76.30078125 15.80109375 -76.30078125 15.12109375 C-72.31497333 13.65755491 -68.31817334 12.23055276 -64.30957031 10.83105469 C-62.46380281 10.17871002 -60.62781851 9.49885594 -58.79296875 8.81640625 C-40.11395616 2.32111246 -19.65623655 0.72111637 0 0 Z " fill="#FDFDFD" transform="translate(564.30078125,608.87890625)"/>
<path d="M0 0 C2.31004637 0.0031718 4.61882018 -0.02046171 6.92871094 -0.0456543 C16.78196317 -0.08766614 25.69934261 0.98629757 35.31152344 3.31567383 C36.16858887 3.50911377 37.0256543 3.70255371 37.90869141 3.90185547 C49.24479212 6.52670701 59.1275253 10.75452428 69.31152344 16.31567383 C70.14941406 16.7359082 70.98730469 17.15614258 71.85058594 17.58911133 C78.96621227 21.23748701 85.09869453 26.33580324 91.31152344 31.31567383 C92.06433594 31.9112207 92.81714844 32.50676758 93.59277344 33.12036133 C96.99361345 35.90155676 99.16708323 38.51416619 101.31152344 42.31567383 C102.95640637 44.00384316 104.62489886 45.66920698 106.31152344 47.31567383 C107.21768693 48.41137868 108.11366057 49.51559395 108.99902344 50.62817383 C109.76214844 51.51504883 110.52527344 52.40192383 111.31152344 53.31567383 C111.97152344 53.31567383 112.63152344 53.31567383 113.31152344 53.31567383 C114.69717978 51.29924302 114.69717978 51.29924302 116.06152344 48.75317383 C119.94598984 42.07113552 124.15841123 37.01146999 130.31152344 32.31567383 C130.88386719 31.71625977 131.45621094 31.1168457 132.04589844 30.49926758 C144.90321046 18.10747892 162.53451111 11.51501033 179.31152344 6.50317383 C180.69682251 6.08612183 180.69682251 6.08612183 182.11010742 5.66064453 C196.89659826 1.46494423 211.48994186 -0.19026798 226.82543945 -0.07543945 C229.37668078 -0.05930937 231.92634406 -0.07542725 234.47753906 -0.09448242 C249.46880958 -0.11530801 263.52808433 2.03716874 277.87402344 6.50317383 C278.84073975 6.79998047 279.80745605 7.09678711 280.8034668 7.40258789 C289.47939968 10.17255834 297.34684927 13.94886797 305.31152344 18.31567383 C307.30741957 19.32383979 309.3060592 20.32667777 311.31152344 21.31567383 C311.31152344 21.97567383 311.31152344 22.63567383 311.31152344 23.31567383 C312.02824219 23.56317383 312.74496094 23.81067383 313.48339844 24.06567383 C333.12129343 32.74540642 344.78376566 55.38555563 352.31152344 74.31567383 C352.80325641 75.53083553 353.29498938 76.74599724 353.80162334 77.99798203 C359.6829928 93.82028128 358.73014834 111.77391067 358.65209961 128.36157227 C358.65125141 130.91621389 358.65173223 133.47085624 358.65342712 136.02549744 C358.65410509 141.48239407 358.64572756 146.9391511 358.62871361 152.39601898 C358.60413191 160.28529919 358.59649897 168.17452763 358.59274963 176.06384197 C358.58621486 188.86965815 358.56633532 201.67541638 358.5378418 214.48120117 C358.51022361 226.90665399 358.48902823 239.33209096 358.47631836 251.75756836 C358.47553019 252.52594574 358.47474202 253.29432313 358.47392996 254.08598468 C358.47001431 257.94144635 358.46622331 261.79690812 358.46249425 265.65236998 C358.43149117 297.54018041 358.37851145 329.42791804 358.31152344 361.31567383 C357.6030426 360.70418991 357.6030426 360.70418991 356.88024902 360.08035278 C356.25622192 359.54328705 355.63219482 359.00622131 354.98925781 358.45288086 C354.37256226 357.92147491 353.7558667 357.39006897 353.1204834 356.84255981 C346.96265276 351.6449294 340.34996484 347.20927971 333.31152344 343.31567383 C332.65152344 342.65567383 331.99152344 341.99567383 331.31152344 341.31567383 C329.85344644 340.66224989 328.36959399 340.06550835 326.87402344 339.50317383 C323.25296492 338.11962435 319.7655443 336.59521732 316.27636719 334.90942383 C310.11981827 332.09430515 303.85405026 330.31371918 297.31152344 328.62817383 C296.21324219 328.33362305 295.11496094 328.03907227 293.98339844 327.7355957 C281.85010564 324.5369492 270.21625136 322.9439191 257.68652344 322.25317383 C254.98560882 322.10115652 252.28532506 321.94243237 249.58496094 321.78051758 C248.40337402 321.71469482 247.22178711 321.64887207 246.00439453 321.58105469 C243.31152344 321.31567383 243.31152344 321.31567383 242.31152344 320.31567383 C242.22034276 317.66547515 242.19496761 315.04159801 242.2114563 312.39123535 C242.21334971 311.13009344 242.21334971 311.13009344 242.21528137 309.84347391 C242.22069387 307.00279494 242.23322403 304.16218973 242.24560547 301.3215332 C242.25079527 299.29301059 242.25550408 297.26448669 242.25976562 295.23596191 C242.26973739 290.8516068 242.28260003 286.46727264 242.29748917 282.08293152 C242.32053758 275.12817193 242.33385548 268.17341526 242.34518433 261.21862793 C242.3786177 241.43518405 242.41980263 221.65178141 242.48291016 201.8684082 C242.5176456 190.95365676 242.54132019 180.03893739 242.55311859 169.12413645 C242.55983938 163.35586299 242.57208918 157.58772492 242.59814835 151.81950378 C244.6240904 93.59211654 244.6240904 93.59211654 219.31152344 43.31567383 C206.06934552 30.90418603 191.71669845 29.80130093 174.46826172 30.23120117 C162.19620399 30.71185908 150.85017545 36.79350644 141.31152344 44.31567383 C140.98152344 44.97567383 140.65152344 45.63567383 140.31152344 46.31567383 C139.65152344 46.31567383 138.99152344 46.31567383 138.31152344 46.31567383 C137.65152344 47.63567383 136.99152344 48.95567383 136.31152344 50.31567383 C135.65152344 50.31567383 134.99152344 50.31567383 134.31152344 50.31567383 C130.96582265 56.82306185 128.10293699 63.55657951 125.31152344 70.31567383 C124.96734375 71.12520508 124.62316406 71.93473633 124.26855469 72.76879883 C121.9950866 79.76832483 124.85128483 87.1693528 126.79907227 93.98974609 C128.32726259 100.92593914 128.45328653 107.77647049 128.43177795 114.84460449 C128.43305959 116.39844038 128.43305959 116.39844038 128.43436712 117.9836669 C128.43600918 121.44135889 128.43052145 124.89900196 128.42504883 128.35668945 C128.42476666 130.84059651 128.42492528 133.32450364 128.42549133 135.80841064 C128.42571877 141.1492424 128.42288941 146.49005903 128.41725349 151.83088684 C128.40911033 159.5527302 128.40652039 167.27456765 128.4052655 174.99641484 C128.40307941 187.52601494 128.39643132 200.05560852 128.38696289 212.58520508 C128.37777733 224.7531735 128.37070209 236.92114014 128.36645508 249.08911133 C128.36606099 250.21504297 128.36606099 250.21504297 128.36565895 251.36372072 C128.36435386 255.12954158 128.36309017 258.89536247 128.36184704 262.66118336 C128.3514882 293.87935159 128.33380734 325.09751172 128.31152344 356.31567383 C124.07729109 356.31567383 123.3912652 356.01373119 120.10839844 353.71801758 C119.30055908 353.16686279 118.49271973 352.61570801 117.66040039 352.04785156 C116.802771 351.45560791 115.9451416 350.86336426 115.06152344 350.25317383 C106.42050294 344.44983148 97.96386614 340.16225036 88.31152344 336.31567383 C86.9068784 335.66548438 85.5032948 335.01299863 84.10058594 334.35864258 C78.68055766 331.93239201 73.07701494 330.31292188 67.37402344 328.69067383 C66.35373047 328.39161133 65.3334375 328.09254883 64.28222656 327.78442383 C52.23619688 324.30975541 40.67118279 322.84818491 28.18652344 322.19067383 C26.64221591 322.10408624 25.09794452 322.01685157 23.55371094 321.92895508 C19.80668973 321.71707071 16.05928934 321.51393122 12.31152344 321.31567383 C12.30913508 320.15813693 12.30674673 319.00060003 12.304286 317.80798626 C12.24677431 290.25472156 12.17393702 262.70153144 12.08253716 235.14835746 C12.07127064 231.74799388 12.06013192 228.34762989 12.04907227 224.94726562 C12.04576674 223.93195122 12.04576674 223.93195122 12.04239444 222.89612541 C12.00713978 211.97407676 11.98220914 201.05202817 11.96117642 190.12994393 C11.93931961 178.90087525 11.90595883 167.67187944 11.86282188 156.44286901 C11.83898533 150.14497235 11.82019404 143.84715597 11.81390953 137.54921532 C11.80781517 131.60746603 11.78766 125.66592188 11.75724792 119.72424889 C11.74853691 117.5569044 11.74473051 115.38953304 11.74651527 113.22217178 C11.76080423 87.83739476 9.21907387 60.63630704 -9.42675781 41.31567383 C-20.86660074 31.19961238 -34.64206567 28.82447016 -49.50097656 29.31567383 C-63.00966341 30.68528455 -74.74743929 36.74321825 -84.06347656 46.62817383 C-96.90355831 63.08414067 -96.27688607 84.4905379 -96.234375 104.19262695 C-96.24312235 106.88462997 -96.25343914 109.57658495 -96.26570129 112.26856995 C-96.28887484 118.0343541 -96.29776804 123.80001298 -96.29659271 129.56584167 C-96.29491467 137.9019373 -96.31534714 146.23786722 -96.34094802 154.5739184 C-96.38190672 168.10290041 -96.40531071 181.63185236 -96.41748047 195.16088867 C-96.42933099 208.29275395 -96.44957005 221.42456274 -96.48095703 234.55639648 C-96.48289313 235.3676427 -96.48482923 236.17888892 -96.48682401 237.01471835 C-96.49658945 241.08503999 -96.5065184 245.15536121 -96.51652861 249.22568226 C-96.59918824 282.92232168 -96.65327629 316.61895153 -96.68847656 350.31567383 C-99.52851448 348.92989437 -102.00325954 347.41859354 -104.56347656 345.56567383 C-122.13321206 333.76596641 -141.25475737 332.13758759 -161.76269531 332.21801758 C-163.18186899 332.21988754 -164.60104333 332.2213087 -166.0202179 332.2223053 C-169.71741586 332.22608502 -173.41457322 332.2358753 -177.11175537 332.24700928 C-180.89969331 332.25732229 -184.68763794 332.2618239 -188.47558594 332.2668457 C-195.87990113 332.27750265 -203.28418311 332.29452295 -210.68847656 332.31567383 C-210.68571118 330.57936848 -210.68571118 330.57936848 -210.68288994 328.80798626 C-210.63945966 301.25478458 -210.60653844 273.70158637 -210.5863459 246.14835746 C-210.58384486 242.74799346 -210.58125618 239.34762952 -210.57861328 235.94726562 C-210.57782635 234.93195122 -210.57782635 234.93195122 -210.57702352 233.89612541 C-210.56834986 222.97405362 -210.55259686 212.05200313 -210.53417097 201.12994393 C-210.51538694 189.90092094 -210.50449142 178.67190849 -210.50029957 167.44286901 C-210.49770358 161.14496322 -210.49164813 154.84710559 -210.47701645 148.54921532 C-210.46332569 142.60754211 -210.45927689 136.66593637 -210.4622612 130.72424889 C-210.46171613 128.55688611 -210.45780779 126.3895208 -210.45006561 124.22217178 C-210.39475277 107.92254447 -210.43358506 91.16419801 -215.00097656 75.37817383 C-215.21898926 74.59369873 -215.43700195 73.80922363 -215.66162109 73.00097656 C-221.25376163 53.46466677 -231.4015979 34.49775338 -249.68847656 24.31567383 C-250.30851562 23.94055664 -250.92855469 23.56543945 -251.56738281 23.17895508 C-257.52189919 19.83497824 -264.0468872 18.6520912 -270.68847656 17.31567383 C-270.68847656 15.99567383 -270.68847656 14.67567383 -270.68847656 13.31567383 C-256.7435225 13.24500785 -242.79859694 13.19260856 -228.85349941 13.16023731 C-222.3758205 13.14468821 -215.89826323 13.12365033 -209.4206543 13.08935547 C-203.15064895 13.05637357 -196.88075941 13.03874034 -190.6106739 13.0310421 C-188.23770389 13.02556737 -185.86473906 13.01488063 -183.49181938 12.99848366 C-156.07367579 12.8168366 -126.52947031 13.58310056 -105.18847656 33.31567383 C-104.60066406 33.91379883 -104.01285156 34.51192383 -103.40722656 35.12817383 C-101.76848497 36.51264845 -101.76848497 36.51264845 -99.73535156 36.24926758 C-97.09000475 35.04270672 -95.50111602 33.42999525 -93.43847656 31.37817383 C-79.14337609 18.19398293 -61.59010098 10.80054176 -43.12597656 5.50317383 C-42.12187744 5.21289307 -41.11777832 4.9226123 -40.08325195 4.62353516 C-26.80841584 0.99104266 -13.68505923 -0.03912501 0 0 Z " fill="#FEFEFE" transform="translate(555.6884765625,276.684326171875)"/>
<path d="M0 0 C0.77988281 0.63292969 1.55976562 1.26585937 2.36328125 1.91796875 C17.83674259 15.73451367 23.54706299 39.04603095 25 59 C25.15872591 64.76240306 25.16456859 70.52355819 25.17358398 76.2878418 C25.17989854 78.03670412 25.18666532 79.78556486 25.19384766 81.53442383 C25.20846348 85.28947808 25.22021059 89.04452637 25.22979546 92.79959679 C25.24534305 98.75866404 25.2692963 104.71767969 25.29469299 110.67671204 C25.36562933 127.61883258 25.42541465 144.56098311 25.47680664 161.50317383 C25.50529161 170.86919122 25.5407727 180.2351576 25.58346039 189.60112125 C25.60564384 194.54360379 25.6242438 199.48603993 25.63390923 204.42856407 C24.77817868 239.21650356 24.77817868 239.21650356 31.09765625 273.125 C31.39542969 274.07375 31.69320312 275.0225 32 276 C32.29390625 276.92425781 32.5878125 277.84851563 32.890625 278.80078125 C33.05637448 283.64895345 30.98607599 287.0073665 28.6875 291.1875 C28.00288696 292.45062012 28.00288696 292.45062012 27.30444336 293.73925781 C18.02825411 310.30035406 3.77041063 319.97687715 -14 326 C-18.33281669 327.05292105 -22.55737246 327.66633952 -27 328 C-28.299375 328.103125 -29.59875 328.20625 -30.9375 328.3125 C-44.74648212 327.87458302 -59.63612434 322.87295062 -69.8125 313.375 C-70.534375 312.59125 -71.25625 311.8075 -72 311 C-72.598125 310.443125 -73.19625 309.88625 -73.8125 309.3125 C-75 308 -75 308 -75 306 C-75.90492188 305.63261719 -75.90492188 305.63261719 -76.828125 305.2578125 C-81.01809822 302.83124528 -82.7556696 298.14970014 -85 294 C-85.32049316 293.41347656 -85.64098633 292.82695313 -85.97119141 292.22265625 C-92.59182833 279.99211814 -97.61930577 267.71587441 -99.11663818 253.78691101 C-99.24217437 252.62599364 -99.24217437 252.62599364 -99.37024665 251.44162339 C-100.29883835 242.06426429 -100.28052071 232.69852586 -100.25878906 223.28442383 C-100.26150695 221.27657444 -100.26507232 219.26872606 -100.26940918 217.26087952 C-100.27843884 211.86439078 -100.27502876 206.46797947 -100.26865101 201.07148957 C-100.26354383 195.39309134 -100.26829526 189.71469919 -100.27142334 184.03630066 C-100.27504846 174.50864486 -100.2703013 164.9810202 -100.26074219 155.45336914 C-100.24985107 144.4719709 -100.25339389 133.49064691 -100.264395 122.50925046 C-100.27349825 113.03951061 -100.27473861 103.56979297 -100.26951766 94.10005015 C-100.26641583 88.46206648 -100.26593927 82.82411761 -100.27259064 77.18613625 C-100.27840822 71.88606638 -100.27428723 66.58609144 -100.26280212 61.28603172 C-100.26017939 59.35241223 -100.26087927 57.41878461 -100.26532745 55.48516846 C-100.30590679 36.03864184 -100.23808297 17.69153908 -85.625 3 C-61.91951614 -19.02378514 -25.10079055 -21.28702702 0 0 Z " fill="#222222" transform="translate(563,647)"/>
<path d="M0 0 C0.78375 0.165 1.5675 0.33 2.375 0.5 C4.88208039 1.0623707 4.88208039 1.0623707 7 1 C11.36461259 1.56564156 14.51413959 3.18792997 18.3125 5.375 C18.90844971 5.71789062 19.50439941 6.06078125 20.1184082 6.4140625 C25.87706873 9.79529437 31.34422332 13.58709841 36.75708008 17.49365234 C40.50017874 20.29065238 40.50017874 20.29065238 45 21 C45 22.65 45 24.3 45 26 C45.99 26 46.98 26 48 26 C48.66 27.98 49.32 29.96 50 32 C49.34 32 48.68 32 48 32 C47.34 33.65 46.68 35.3 46 37 C45.01 37 44.02 37 43 37 C42.505 37.99 42.505 37.99 42 39 C42.66 39 43.32 39 44 39 C43.34 40.32 42.68 41.64 42 43 C41.61070312 42.53851562 41.22140625 42.07703125 40.8203125 41.6015625 C38.90954729 39.37380398 36.95846194 37.18594209 35 35 C34.32066406 34.21753906 33.64132812 33.43507813 32.94140625 32.62890625 C20.99913445 19.6931699 4.35517203 11.86317488 -12 6 C-12 5.01 -12 4.02 -12 3 C-10.02 3 -8.04 3 -6 3 C-6 4.32 -6 5.64 -6 7 C-3.36 6.67 -0.72 6.34 2 6 C1.34 5.34 0.68 4.68 0 4 C0.66 3.67 1.32 3.34 2 3 C1.34 2.01 0.68 1.02 0 0 Z " fill="#262626" transform="translate(642,614)"/>
<path d="M0 0 C0.33 0 0.66 0 1 0 C1 85.47 1 170.94 1 259 C-0.485 257.515 -0.485 257.515 -2 256 C-1.67 255.67 -1.34 255.34 -1 255 C-0.89862215 253.63448524 -0.86603556 252.2637874 -0.8613348 250.89452267 C-0.85586036 250.00426575 -0.85038591 249.11400883 -0.84474558 248.19677442 C-0.84376747 247.20749545 -0.84278936 246.21821648 -0.84178162 245.19895935 C-0.83684364 244.15679907 -0.83190566 243.1146388 -0.82681805 242.04089791 C-0.81135929 238.52002414 -0.80305988 234.99916871 -0.79467773 231.47827148 C-0.78510578 228.96583899 -0.77509612 226.45340813 -0.76467896 223.940979 C-0.74318139 218.51709473 -0.72475155 213.0932136 -0.70907402 207.66930962 C-0.68640146 199.82717093 -0.65825507 191.98505949 -0.62875474 184.14294387 C-0.5810467 171.42091013 -0.53779125 158.69886528 -0.49731445 145.97680664 C-0.45797585 133.61546971 -0.41655357 121.25414267 -0.37231445 108.89282227 C-0.36959018 108.13140112 -0.36686591 107.36997997 -0.36405908 106.58548545 C-0.35037987 102.76581779 -0.33665955 98.94615028 -0.32291877 95.12648284 C-0.20890355 63.41767558 -0.10217922 31.70884768 0 0 Z " fill="#EBEBEB" transform="translate(913,379)"/>
<path d="M0 0 C8.34545455 4.01818182 8.34545455 4.01818182 11 8 C10.01 9.485 10.01 9.485 9 11 C9 11.99 9 12.98 9 14 C8.34 14 7.68 14 7 14 C7.33 15.65 7.66 17.3 8 19 C7.29875 18.401875 6.5975 17.80375 5.875 17.1875 C3.02969023 15.02259039 0.23367233 13.50403364 -3 12 C-3 11.34 -3 10.68 -3 10 C-2.34 10 -1.68 10 -1 10 C-1 9.34 -1 8.68 -1 8 C0.32 7.67 1.64 7.34 3 7 C2.505 6.21625 2.01 5.4325 1.5 4.625 C0 2 0 2 0 0 Z M4 10 C4.66 11.32 5.32 12.64 6 14 C6.66 13.01 7.32 12.02 8 11 C6.68 10.67 5.36 10.34 4 10 Z " fill="#2D2D2D" transform="translate(446,619)"/>
<path d="M0 0 C2.475 0.99 2.475 0.99 5 2 C5.33 1.34 5.66 0.68 6 0 C6.66 0.66 7.32 1.32 8 2 C6.68 2.33 5.36 2.66 4 3 C2.98459888 7.10223585 2.98459888 7.10223585 4 11 C3.34 11.66 2.68 12.32 2 13 C-0.97 11.02 -3.94 9.04 -7 7 C-5.68 6.34 -4.36 5.68 -3 5 C-2.67 4.34 -2.34 3.68 -2 3 C-2.66 3 -3.32 3 -4 3 C-4 2.34 -4 1.68 -4 1 C-2.68 1.33 -1.36 1.66 0 2 C0 1.34 0 0.68 0 0 Z " fill="#2E2E2E" transform="translate(663,625)"/>
<path d="M0 0 C0 0.66 0 1.32 0 2 C-1.98 2 -3.96 2 -6 2 C-6.33 2.99 -6.66 3.98 -7 5 C-10.875 4.125 -10.875 4.125 -12 3 C-12.33 2.34 -12.66 1.68 -13 1 C-17.62 1.33 -22.24 1.66 -27 2 C-18.4675472 -2.2662264 -9.25259881 -0.94266289 0 0 Z " fill="#292929" transform="translate(759,633)"/>
<path d="M0 0 C0.66 0 1.32 0 2 0 C0.56191811 6.07190133 -2.88691311 11.36476177 -7 16 C-7.99 16 -8.98 16 -10 16 C-10 14.68 -10 13.36 -10 12 C-8.68 11.67 -7.36 11.34 -6 11 C-6 10.34 -6 9.68 -6 9 C-6.66 8.67 -7.32 8.34 -8 8 C-6.68 8 -5.36 8 -4 8 C-4 6.35 -4 4.7 -4 3 C-3.01 2.67 -2.02 2.34 -1 2 C-0.67 1.34 -0.34 0.68 0 0 Z " fill="#2B2B2B" transform="translate(589,937)"/>
<path d="M0 0 C6.435 2.97 6.435 2.97 13 6 C12.67 6.66 12.34 7.32 12 8 C10.906875 7.979375 9.81375 7.95875 8.6875 7.9375 C5.05615809 7.81455548 5.05615809 7.81455548 2 9 C2 8.34 2 7.68 2 7 C1.01 7 0.02 7 -1 7 C-1 6.01 -1 5.02 -1 4 C-0.34 3.67 0.32 3.34 1 3 C0.67 2.01 0.34 1.02 0 0 Z " fill="#2A2A2A" transform="translate(645,983)"/>
<path d="M0 0 C-0.99 1.98 -1.98 3.96 -3 6 C-2.34 6 -1.68 6 -1 6 C-0.67 7.32 -0.34 8.64 0 10 C-0.99 10.495 -0.99 10.495 -2 11 C-5.53586014 7.82679218 -7.58578031 5.83256305 -8 1 C-5.29120665 -0.35439668 -2.99066732 -0.06501451 0 0 Z " fill="#2D2D2D" transform="translate(663,313)"/>
<path d="M0 0 C-0.33 1.65 -0.66 3.3 -1 5 C0.32 5.33 1.64 5.66 3 6 C2.01 6 1.02 6 0 6 C0 6.99 0 7.98 0 9 C-0.99 9.33 -1.98 9.66 -3 10 C-3.68707555 7.50935112 -4 5.62113708 -4 3 C-4.66 3 -5.32 3 -6 3 C-6 2.34 -6 1.68 -6 1 C-4 0 -4 0 0 0 Z " fill="#242424" transform="translate(279,622)"/>
<path d="M0 0 C1.32 0.66 2.64 1.32 4 2 C3.61402985 4.79828356 3.19863427 5.8205884 1.0625 7.75 C-1 9 -1 9 -3 9 C-2.25 2.25 -2.25 2.25 0 0 Z " fill="#282828" transform="translate(474,654)"/>
<path d="M0 0 C0.66 0.33 1.32 0.66 2 1 C5.31566836 2.43380253 8.43872745 3.38949614 12 4 C12 4.33 12 4.66 12 5 C7.38 5.66 2.76 6.32 -2 7 C-2.33 5.68 -2.66 4.36 -3 3 C-1.5625 1.25 -1.5625 1.25 0 0 Z " fill="#303030" transform="translate(515,609)"/>
<path d="M0 0 C0 0.99 0 1.98 0 3 C-0.99 3.495 -0.99 3.495 -2 4 C-1.01 4.66 -0.02 5.32 1 6 C0.34 5.855625 -0.32 5.71125 -1 5.5625 C-4.65599551 4.87700084 -8.30622195 4.43824485 -12 4 C-12 3.67 -12 3.34 -12 3 C-9.69 3 -7.38 3 -5 3 C-5.33 2.01 -5.66 1.02 -6 0 C-3.50907189 -1.24546405 -2.58919267 -0.7767578 0 0 Z " fill="#3A3A3A" transform="translate(613,609)"/>
<path d="M0 0 C-0.33 0.66 -0.66 1.32 -1 2 C0.32 1.67 1.64 1.34 3 1 C3 1.66 3 2.32 3 3 C3.66 3 4.32 3 5 3 C5 3.66 5 4.32 5 5 C-1.4 4.50769231 -1.4 4.50769231 -4.4375 1.9375 C-5.2109375 0.9784375 -5.2109375 0.9784375 -6 0 C-3.50907189 -1.24546405 -2.58919267 -0.7767578 0 0 Z " fill="#2F2F2F" transform="translate(739,964)"/>
<path d="M0 0 C0 3.95875396 -1.21313946 6.49009536 -3 10 C-5 11.5 -5 11.5 -7 12 C-7.99 11.67 -8.98 11.34 -10 11 C-9.04882866 9.8274869 -8.08882991 8.66212985 -7.125 7.5 C-6.32449219 6.52546875 -6.32449219 6.52546875 -5.5078125 5.53125 C-5.01023437 5.0259375 -4.51265625 4.520625 -4 4 C-3.34 4 -2.68 4 -2 4 C-1.34 2.68 -0.68 1.36 0 0 Z " fill="#3B3B3B" transform="translate(698,319)"/>
<path d="M0 0 C-1.38290829 1.98793067 -2.56167198 2.88705658 -4.91015625 3.4921875 C-7.0625 3.8125 -7.0625 3.8125 -11 4 C-11.66 3.34 -12.32 2.68 -13 2 C-11.5882217 1.46605821 -10.17029756 0.94834896 -8.75 0.4375 C-7.96109375 0.14746094 -7.1721875 -0.14257812 -6.359375 -0.44140625 C-3.80896548 -1.04522837 -2.44677771 -0.8473932 0 0 Z " fill="#373737" transform="translate(782,992)"/>
<path d="M0 0 C0.99 0.99 1.98 1.98 3 3 C2.67 3.66 2.34 4.32 2 5 C1.34 5 0.68 5 0 5 C-0.33 5.99 -0.66 6.98 -1 8 C-2.65 8.33 -4.3 8.66 -6 9 C-4.02 6.03 -2.04 3.06 0 0 Z " fill="#3F3F3F" transform="translate(605,946)"/>
<path d="M0 0 C-0.66 0 -1.32 0 -2 0 C-2 0.99 -2 1.98 -2 3 C-2.7425 3.28875 -3.485 3.5775 -4.25 3.875 C-6.91766929 4.91962898 -6.91766929 4.91962898 -9.0625 6.0625 C-11.02808497 7.0135895 -12.8703909 7.54365519 -15 8 C-5.87234043 -1.95744681 -5.87234043 -1.95744681 0 0 Z " fill="#3E3E3E" transform="translate(719,640)"/>
<path d="M0 0 C0.66 0 1.32 0 2 0 C2 0.66 2 1.32 2 2 C2.66 2 3.32 2 4 2 C4.33 3.32 4.66 4.64 5 6 C5.66 6 6.32 6 7 6 C7 7.98 7 9.96 7 12 C6.01 11.67 5.02 11.34 4 11 C2.83203125 8.49609375 2.83203125 8.49609375 1.8125 5.4375 C1.46832031 4.42558594 1.12414062 3.41367187 0.76953125 2.37109375 C0.51558594 1.58863281 0.26164063 0.80617188 0 0 Z " fill="#333333" transform="translate(904,343)"/>
<path d="M0 0 C-1.57894208 2.36841312 -2.9754262 4.06745228 -5 6 C-6.32 4.68 -7.64 3.36 -9 2 C-3.375 -1.125 -3.375 -1.125 0 0 Z " fill="#333333" transform="translate(497,639)"/>
<path d="M0 0 C-0.61875 0.20625 -1.2375 0.4125 -1.875 0.625 C-4.84653645 2.54775888 -5.13024659 4.66594527 -6 8 C-6.99 7.34 -7.98 6.68 -9 6 C-8.39816251 3.97954558 -7.72693904 1.97888961 -7 0 C-4.3333581 -1.33332095 -2.83319697 -0.67102033 0 0 Z " fill="#242424" transform="translate(674,628)"/>
<path d="M0 0 C1.41750563 0.11509661 2.83401169 0.24253658 4.25 0.375 C5.03890625 0.44460938 5.8278125 0.51421875 6.640625 0.5859375 C9.085877 1.01507113 10.84836903 1.78600638 13 3 C12.34 3 11.68 3 11 3 C10.67 3.66 10.34 4.32 10 5 C7.69 4.34 5.38 3.68 3 3 C3 2.34 3 1.68 3 1 C2.01 0.67 1.02 0.34 0 0 Z " fill="#343434" transform="translate(606,601)"/>
<path d="M0 0 C2.31 1.98 4.62 3.96 7 6 C6.67 6.66 6.34 7.32 6 8 C4.02 7.34 2.04 6.68 0 6 C0 4 0 2 0 0 Z " fill="#2D2D2D" transform="translate(310,641)"/>
<path d="M0 0 C4.67692308 1.47692308 4.67692308 1.47692308 6.3125 4.125 C6.539375 4.74375 6.76625 5.3625 7 6 C6.34 6 5.68 6 5 6 C4.67 6.99 4.34 7.98 4 9 C3.34 8.34 2.68 7.68 2 7 C2.66 7 3.32 7 4 7 C3.34 6.401875 2.68 5.80375 2 5.1875 C0 3 0 3 0 0 Z " fill="#2A2A2A" transform="translate(776,324)"/>
<path d="M0 0 C2.475 0.99 2.475 0.99 5 2 C2.87219421 4.34058637 0.88437779 5.70700306 -2 7 C-2.33 6.01 -2.66 5.02 -3 4 C-1.5625 1.8125 -1.5625 1.8125 0 0 Z " fill="#323232" transform="translate(788,963)"/>
<path d="M0 0 C1.98 0 3.96 0 6 0 C6 1.32 6 2.64 6 4 C7.32 4 8.64 4 10 4 C10 4.66 10 5.32 10 6 C6.7 5.01 3.4 4.02 0 3 C0 2.01 0 1.02 0 0 Z " fill="#383838" transform="translate(630,617)"/>
<path d="M0 0 C-0.66 0 -1.32 0 -2 0 C-2.33 0.99 -2.66 1.98 -3 3 C-3.33 2.34 -3.66 1.68 -4 1 C-8.62 1.33 -13.24 1.66 -18 2 C-14.47422439 0.23711219 -12.75578663 -0.33825765 -9 -0.6875 C-8.154375 -0.77386719 -7.30875 -0.86023438 -6.4375 -0.94921875 C-4.07091802 -0.99852254 -2.25100125 -0.69301659 0 0 Z " fill="#4A4A4A" transform="translate(750,633)"/>
<path d="M0 0 C1.65 0.33 3.3 0.66 5 1 C5 1.99 5 2.98 5 4 C3.02 4.99 1.04 5.98 -1 7 C-1 5.68 -1 4.36 -1 3 C-0.34 3 0.32 3 1 3 C0.67 2.01 0.34 1.02 0 0 Z " fill="#2B2B2B" transform="translate(468,297)"/>
<path d="M0 0 C2.31 0 4.62 0 7 0 C6.67 0.66 6.34 1.32 6 2 C5.34 1.67 4.68 1.34 4 1 C4 1.66 4 2.32 4 3 C4.66 3.33 5.32 3.66 6 4 C4.02 4 2.04 4 0 4 C0 2.68 0 1.36 0 0 Z " fill="#E1E1E1" transform="translate(285,290)"/>
<path d="M0 0 C3 1 3 1 4.1875 3.0625 C4.455625 3.701875 4.72375 4.34125 5 5 C4.071875 4.835 3.14375 4.67 2.1875 4.5 C-0.95621353 3.92251612 -0.95621353 3.92251612 -4 4 C-2.68 2.68 -1.36 1.36 0 0 Z " fill="#424242" transform="translate(814,966)"/>
<path d="M0 0 C-1.485 1.485 -1.485 1.485 -3 3 C-2.67 3.99 -2.34 4.98 -2 6 C-4.88575819 5.60196439 -5.82189513 5.20990931 -7.75 2.9375 C-8.1625 2.298125 -8.575 1.65875 -9 1 C-5.92677456 0.08941469 -3.19902639 -0.08886184 0 0 Z " fill="#2F2F2F" transform="translate(511,634)"/>
<path d="M0 0 C0.99 0.33 1.98 0.66 3 1 C3 1.66 3 2.32 3 3 C3.66 3.33 4.32 3.66 5 4 C2.36 4.66 -0.28 5.32 -3 6 C-3.33 5.34 -3.66 4.68 -4 4 C-2.68 2.68 -1.36 1.36 0 0 Z " fill="#373737" transform="translate(502,281)"/>
<path d="M0 0 C0.66 0.33 1.32 0.66 2 1 C2 1.66 2 2.32 2 3 C2.99 3.33 3.98 3.66 5 4 C5 4.66 5 5.32 5 6 C2.03 5.505 2.03 5.505 -1 5 C-1.33 3.68 -1.66 2.36 -2 1 C-1.34 0.67 -0.68 0.34 0 0 Z " fill="#2F2F2F" transform="translate(626,970)"/>
<path d="M0 0 C3 1 3 1 5 2 C5 2.66 5 3.32 5 4 C2.03 3.67 -0.94 3.34 -4 3 C-2.1875 1.4375 -2.1875 1.4375 0 0 Z " fill="#343434" transform="translate(753,970)"/>
<path d="M0 0 C0.99 0 1.98 0 3 0 C2.67 1.98 2.34 3.96 2 6 C1.01 6 0.02 6 -1 6 C-1.33 4.68 -1.66 3.36 -2 2 C-1.34 2 -0.68 2 0 2 C0 1.34 0 0.68 0 0 Z " fill="#2B2B2B" transform="translate(804,946)"/>
<path d="M0 0 C0.99 0 1.98 0 3 0 C3.66 2.31 4.32 4.62 5 7 C3.68 7.33 2.36 7.66 1 8 C0.67 5.36 0.34 2.72 0 0 Z " fill="#404040" transform="translate(465,904)"/>
<path d="M0 0 C0.99 0.99 1.98 1.98 3 3 C2.67 3.99 2.34 4.98 2 6 C1.01 6.33 0.02 6.66 -1 7 C-1 6.34 -1 5.68 -1 5 C-1.66 5 -2.32 5 -3 5 C-3 3 -3 3 -1.5 1.375 C-1.005 0.92125 -0.51 0.4675 0 0 Z " fill="#2E2E2E" transform="translate(797,656)"/>
<path d="M0 0 C3.68754757 0.49831724 5.60490662 1.10067643 8 4 C6.35 4.33 4.7 4.66 3 5 C3 4.34 3 3.68 3 3 C2.01 2.67 1.02 2.34 0 2 C0 1.34 0 0.68 0 0 Z " fill="#2D2D2D" transform="translate(776,640)"/>
<path d="M0 0 C0 1.65 0 3.3 0 5 C-0.99 5.33 -1.98 5.66 -3 6 C-4.32 4.68 -5.64 3.36 -7 2 C-1.125 0 -1.125 0 0 0 Z " fill="#313131" transform="translate(879,300)"/>
<path d="M0 0 C-0.33 0.99 -0.66 1.98 -1 3 C-3.875 3.125 -3.875 3.125 -7 3 C-7.66 2.34 -8.32 1.68 -9 1 C-3.375 -1.125 -3.375 -1.125 0 0 Z " fill="#3D3D3D" transform="translate(546,995)"/>
<path d="M0 0 C1.70884005 1.62339805 3.37446717 3.29319053 5 5 C5 5.66 5 6.32 5 7 C3.02 6.34 1.04 5.68 -1 5 C-0.67 3.35 -0.34 1.7 0 0 Z " fill="#2F2F2F" transform="translate(319,650)"/>
<path d="M0 0 C1.32 0.66 2.64 1.32 4 2 C3.67 3.65 3.34 5.3 3 7 C1.35 5.35 -0.3 3.7 -2 2 C-1.34 1.34 -0.68 0.68 0 0 Z " fill="#303030" transform="translate(891,317)"/>
<path d="M0 0 C2.9375 0.375 2.9375 0.375 6 1 C6.33 1.66 6.66 2.32 7 3 C5 5 5 5 2 7 C2 5.33333333 2 3.66666667 2 2 C1.34 1.34 0.68 0.68 0 0 Z " fill="#282828" transform="translate(473,625)"/>
<path d="M0 0 C3.875 4.75 3.875 4.75 5 7 C3.35 7.33 1.7 7.66 0 8 C0 5.36 0 2.72 0 0 Z " fill="#333333" transform="translate(326,319)"/>
<path d="M0 0 C2.475 0.99 2.475 0.99 5 2 C1.09971775 4.60018816 -2.47434569 4.15085514 -7 4 C-7 3.67 -7 3.34 -7 3 C-6.21625 2.87625 -5.4325 2.7525 -4.625 2.625 C-1.85942178 2.20882007 -1.85942178 2.20882007 0 0 Z " fill="#454545" transform="translate(774,970)"/>
<path d="M0 0 C1.65 1.65 3.3 3.3 5 5 C4.01 5.99 3.02 6.98 2 8 C1.814375 7.071875 1.814375 7.071875 1.625 6.125 C1.12802644 3.80879168 1.12802644 3.80879168 -1 2 C-0.67 1.34 -0.34 0.68 0 0 Z " fill="#363636" transform="translate(367,948)"/>
<path d="M0 0 C-1.15173355 2.46800047 -2.04783565 4.04783565 -4 6 C-4 5.01 -4 4.02 -4 3 C-4.66 3 -5.32 3 -6 3 C-6 2.34 -6 1.68 -6 1 C-4 0 -4 0 0 0 Z " fill="#2E2E2E" transform="translate(279,622)"/>
<path d="M0 0 C0.66 0.33 1.32 0.66 2 1 C2.625 3.5625 2.625 3.5625 3 6 C1.68 6 0.36 6 -1 6 C-1.33 5.34 -1.66 4.68 -2 4 C-1.0625 1.875 -1.0625 1.875 0 0 Z " fill="#1C1C1C" transform="translate(691,297)"/>
<path d="M0 0 C0.99 0.33 1.98 0.66 3 1 C2.01 2.32 1.02 3.64 0 5 C-1.32 4.34 -2.64 3.68 -4 3 C-2.68 2.67 -1.36 2.34 0 2 C0 1.34 0 0.68 0 0 Z " fill="#2A2A2A" transform="translate(576,954)"/>
<path d="M0 0 C0.99 0.33 1.98 0.66 3 1 C2.34 2.32 1.68 3.64 1 5 C0.01 5 -0.98 5 -2 5 C-2 3.68 -2 2.36 -2 1 C-1.34 0.67 -0.68 0.34 0 0 Z " fill="#2E2E2E" transform="translate(581,948)"/>
<path d="M0 0 C2.3431213 0.25561323 4.67843403 0.59270772 7 1 C7.33 1.66 7.66 2.32 8 3 C6.35 3.33 4.7 3.66 3 4 C2.67 3.01 2.34 2.02 2 1 C1.34 0.67 0.68 0.34 0 0 Z " fill="#2A2A2A" transform="translate(762,635)"/>
<path d="M0 0 C-0.99 1.485 -0.99 1.485 -2 3 C-3.9453125 3.29296875 -3.9453125 3.29296875 -6.125 3.1875 C-7.40375 3.125625 -8.6825 3.06375 -10 3 C-6.88378718 -0.11621282 -4.21175599 -0.11383124 0 0 Z " fill="#2A2A2A" transform="translate(538,634)"/>
<path d="M0 0 C2.475 0.495 2.475 0.495 5 1 C3.35 2.65 1.7 4.3 0 6 C0 4.02 0 2.04 0 0 Z " fill="#414141" transform="translate(682,307)"/>
<path d="M0 0 C0.66 0.33 1.32 0.66 2 1 C2.625 3.5625 2.625 3.5625 3 6 C0.525 5.01 0.525 5.01 -2 4 C-1.34 2.68 -0.68 1.36 0 0 Z " fill="#333333" transform="translate(611,282)"/>
</svg>
